<svg xmlns="http://www.w3.org/2000/svg" version="1.1" xmlns:xlink="http://www.w3.org/1999/xlink" xmlns:svgjs="http://svgjs.dev/svgjs" width="1500" height="1500" viewBox="0 0 1500 1500"><rect width="1500" height="1500" fill="#ffffff"></rect><g transform="matrix(0.6666666666666666,0,0,0.6666666666666666,249.39393939393938,435.99032258064517)"><svg viewBox="0 0 396 248" data-background-color="#ffffff" preserveAspectRatio="xMidYMid meet" height="939" width="1500" xmlns="http://www.w3.org/2000/svg" xmlns:xlink="http://www.w3.org/1999/xlink"><g id="tight-bounds" transform="matrix(1,0,0,1,0.2400000000000091,0.4000000000000057)"><svg viewBox="0 0 395.52 247.2" height="247.2" width="395.52"><g><svg></svg></g><g><svg viewBox="0 0 395.52 247.2" height="247.2" width="395.52"><g transform="matrix(1,0,0,1,75.54432000000001,79.383022733452)"><svg viewBox="0 0 244.43135999999996 88.433954533096" height="88.433954533096" width="244.43135999999996"><g><svg viewBox="0 0 417.5299374496741 151.0600910809108" height="88.433954533096" width="244.43135999999996"><g transform="matrix(1,0,0,1,173.09857744967414,8.336780101152485)"><svg viewBox="0 0 244.43135999999998 134.38653087860584" height="134.38653087860584" width="244.43135999999998"><g id="textblocktransform"><svg viewBox="0 0 244.43135999999998 134.38653087860584" height="134.38653087860584" width="244.43135999999998" id="textblock"><g><svg viewBox="0 0 244.43135999999998 93.35975266301591" height="93.35975266301591" width="244.43135999999998"><g transform="matrix(1,0,0,1,0,0)"><svg width="244.43135999999998" viewBox="1.39 -31.57 125.1447278608201 47.809999999999995" height="93.35975266301591" data-palette-color="#000000"><g transform="matrix(1,0,0,1,0,0)"><g><svg width="7.069818573880058" viewBox="2.25 -36.86 34.42 36.86" height="7.5732421875" data-palette-color="#000000" id="scriptelement" x="119.46490928694004" y="-7.5732421875"><path d="M16.67 0L2.25 0 2.25-6.34 9.06-6.34 9.06-6.62Q5.91-8.63 4.08-11.9 2.25-15.16 2.25-19.73L2.25-19.73Q2.25-23.49 3.52-26.63 4.78-29.78 7.08-32.06 9.39-34.34 12.54-35.6 15.7-36.86 19.46-36.86L19.46-36.86Q23.22-36.86 26.38-35.6 29.53-34.34 31.84-32.06 34.14-29.78 35.4-26.63 36.67-23.49 36.67-19.73L36.67-19.73Q36.67-15.16 34.84-11.9 33.01-8.63 29.87-6.62L29.87-6.62 29.87-6.34 36.67-6.34 36.67 0 22.25 0 22.25-7.95Q24.17-8.74 25.67-10.37 27.18-12 28.05-14.25 28.91-16.5 28.91-19.14L28.91-19.14Q28.91-22.25 27.71-24.71 26.51-27.17 24.38-28.59 22.25-30.01 19.46-30.01L19.46-30.01Q17.4-30.01 15.66-29.2 13.92-28.39 12.66-26.92 11.4-25.44 10.71-23.46 10.01-21.48 10.01-19.14L10.01-19.14Q10.01-16.5 10.88-14.25 11.74-12 13.25-10.37 14.75-8.74 16.67-7.95L16.67-7.95 16.67 0Z" opacity="1" transform="matrix(1,0,0,1,0,0)" fill="#000000" class="undefined-123" data-fill-palette-color="primary" id="tk-123"></path></svg></g></g><path d="M1.39-9.35L1.39-9.35Q1.39-13.79 3.93-16.88 6.47-19.97 10.11-19.97L10.11-19.97Q13.79-19.97 16.55-17.09 19.31-14.21 19.31-9.84L19.31-9.84Q19.31-5.47 16.92-2.56L16.92-2.56Q14.16 0.78 10.57 0.78L10.57 0.78Q6.74 0.81 4.08-2.09 1.42-4.98 1.39-9.35ZM9.74-18.14L9.74-18.14Q7.15-18.14 5.76-15.8 4.37-13.45 4.37-9.96L4.37-9.96Q4.37-6.49 6.14-3.77 7.91-1.05 10.82-1.03L10.82-1.03Q13.53-1.03 14.88-3.41 16.24-5.79 16.24-9.01L16.24-9.01Q16.24-12.45 14.58-15.28 12.92-18.12 9.74-18.14ZM27.63 0.17L27.63 0.17 27.63 11.3Q27.63 13.38 28.11 14.04 28.59 14.7 30.37 15.19L30.37 15.19 30.98 15.36 30.98 16.24 21.7 16.24 21.7 15.33Q23.65 14.99 24.17 14.31 24.68 13.62 24.68 12.62L24.68 12.62 24.68-14.72Q24.68-16.38 24.51-16.77L24.51-16.77Q24.14-17.63 21.77-17.63L21.77-17.63 21.65-18.46 27.63-19.97 27.63-18.26Q30.15-20.09 33.32-20.09L33.32-20.09Q36.81-20.09 39.3-17.52 41.79-14.94 41.79-10.12 41.79-5.3 38.99-2.37L38.99-2.37Q35.98 0.78 31.93 0.81L31.93 0.81Q29.88 0.81 27.63 0.17ZM27.66-16.28L27.63-2.27Q29.42-1.07 31.71-1.07L31.71-1.07Q34.4-1.07 36.61-2.97 38.82-4.86 38.82-9.11L38.82-9.11Q38.82-12.92 37.36-14.81 35.91-16.7 34.49-17.3 33.08-17.9 31.66-17.82L31.66-17.82Q29.68-17.72 27.66-16.28L27.66-16.28ZM44.6-18.46L50.61-19.97 50.61-5.1Q50.61-2.86 50.92-2.19 51.24-1.51 52.41-1.27L52.41-1.27 53.85-1 53.85 0 44.6 0 44.6-1.03 46.28-1.39Q47.19-1.59 47.41-1.95L47.41-1.95Q47.6-2.37 47.6-3.74L47.6-3.74 47.6-14.72Q47.6-16.41 47.46-16.77L47.46-16.77Q47.11-17.63 44.72-17.63L44.72-17.63 44.6-18.46ZM46.43-29.52L46.43-29.52Q46.43-30.37 47-30.97 47.58-31.57 48.43-31.57L48.43-31.57Q49.26-31.57 49.86-30.97 50.46-30.37 50.46-29.52L50.46-29.52Q50.46-28.69 49.86-28.11 49.26-27.54 48.43-27.54L48.43-27.54Q47.58-27.54 47-28.11 46.43-28.69 46.43-29.52ZM56.24-18.65L56.24-18.65 56.24-19.63 61.83-19.63 61.83-9.42Q61.83-9.08 61.76-7.08L61.76-7.08Q61.56-1.39 65.74-1.34L65.74-1.34Q68.06-1.34 69.77-3.2 71.48-5.05 71.48-7.4L71.48-7.4 71.48-13.33Q71.48-16.58 71.18-17.46L71.18-17.46Q70.79-18.63 68.4-18.63L68.4-18.63 68.4-19.63 74.5-19.63 74.5-5.3Q74.5-2.64 75.6-2.12L75.6-2.12Q76.12-1.9 77.56-1.98L77.56-1.98 77.68-1.12 72.36 0.71 71.48-2.51 70.67-1.73Q67.81 0.73 64.67 0.76L64.67 0.76Q60.76 0.76 59.51-2.22L59.51-2.22Q58.78-3.98 58.78-7.01L58.78-7.01 58.78-14.65Q58.78-17.65 57.54-18.46L57.54-18.46Q56.97-18.8 56.24-18.65ZM93.4-17.9L93.4-17.9Q89.91-17.9 87.27-16.04L87.27-16.04 87.27-5.1Q87.27-2.86 87.59-2.19 87.91-1.51 89.08-1.27L89.08-1.27 90.52-1 90.52 0 81.26 0 81.26-1.03 82.95-1.39Q83.85-1.59 84.07-1.95L84.07-1.95Q84.27-2.37 84.27-3.74L84.27-3.74 84.27-14.72Q84.27-16.43 83.93-17.02L83.93-17.02Q83.56-17.63 81.39-17.63L81.39-17.63 81.26-18.46 87.27-19.97 87.27-17.82Q91.42-20.09 94.56-20.08 97.7-20.07 99.11-17.36L99.11-17.36Q103.77-20.09 107.28-20.09 110.78-20.09 112.07-16.77L112.07-16.77Q112.71-15.16 112.71-12.84L112.71-12.84 112.71-5.05Q112.71-2.81 113.04-2.14 113.37-1.46 114.49-1.25L114.49-1.25 115.93-0.95 115.93 0 106.7 0 106.7-1 108.36-1.34Q109.29-1.54 109.49-1.93L109.49-1.93Q109.68-2.34 109.68-3.71L109.68-3.71 109.68-12.06Q109.63-17.85 106.09-17.9L106.09-17.9Q102.6-17.9 99.65-15.97L99.65-15.97Q100.01-14.62 100.01-12.84L100.01-12.84 100.01-5.05Q100.01-2.81 100.34-2.14 100.67-1.46 101.8-1.25L101.8-1.25 103.24-0.95 103.24 0 94.01 0 94.01-1 95.67-1.34Q96.6-1.54 96.79-1.93L96.79-1.93Q96.99-2.34 96.99-3.71L96.99-3.71 96.99-12.06Q96.94-17.85 93.4-17.9Z" opacity="1" transform="matrix(1,0,0,1,0,0)" fill="#000000" class="wordmark-text-0" data-fill-palette-color="primary" id="text-0"></path></svg></g></svg></g><g transform="matrix(1,0,0,1,0,115.39974963269006)"><svg viewBox="0 0 143.50565145599998 18.98678124591579" height="18.98678124591579" width="143.50565145599998"><g transform="matrix(1,0,0,1,0,0)"><svg width="143.50565145599998" viewBox="0.35 -37.7 366.90999999999997 48.550000000000004" height="18.98678124591579" data-palette-color="#000000"><path d="M20.8-29.85L22.35-25.1Q21.3-24.6 19.83-24.4 18.35-24.2 16.15-24.2L16.15-24.2Q18.25-23.2 19.28-21.53 20.3-19.85 20.3-17.4L20.3-17.4Q20.3-13.4 17.85-10.95 15.4-8.5 11.2-8.5L11.2-8.5Q9.95-8.5 8.65-8.9L8.65-8.9Q7.75-8.15 7.75-6.85L7.75-6.85Q7.75-5.85 8.3-5.35 8.85-4.85 10.35-4.85L10.35-4.85 13.15-4.85Q17.15-4.85 19.5-2.78 21.85-0.7 21.85 2.5L21.85 2.5Q21.85 6.3 18.93 8.58 16 10.85 10.6 10.85L10.6 10.85Q4.9 10.85 2.63 8.75 0.35 6.65 0.35 2.6L0.35 2.6 5.8 2.6Q5.8 4.75 6.8 5.65 7.8 6.55 10.65 6.55L10.65 6.55Q13.4 6.55 14.55 5.6 15.7 4.65 15.7 2.9L15.7 2.9Q15.7 1.2 14.75 0.4 13.8-0.4 11.8-0.4L11.8-0.4 9.9-0.4Q6.1-0.4 4.35-1.75 2.6-3.1 2.6-5.45L2.6-5.45Q2.6-6.8 3.33-8.03 4.05-9.25 5.3-10.2L5.3-10.2Q3.25-11.5 2.3-13.3 1.35-15.1 1.35-17.7L1.35-17.7Q1.35-22.05 3.95-24.58 6.55-27.1 10.95-27.1L10.95-27.1Q14.2-27.1 16.32-27.8 18.45-28.5 20.8-29.85L20.8-29.85ZM10.95-23Q9.2-23 8.3-21.75 7.4-20.5 7.4-17.8L7.4-17.8Q7.4-15.25 8.3-13.88 9.2-12.5 10.9-12.5L10.9-12.5Q12.65-12.5 13.5-13.73 14.35-14.95 14.35-17.85L14.35-17.85Q14.35-20.55 13.53-21.78 12.7-23 10.95-23L10.95-23ZM34.5-27.15Q39.5-27.15 42.27-23.65 45.05-20.15 45.05-13.25L45.05-13.25Q45.05-6.65 42.25-2.95 39.45 0.75 34.5 0.75L34.5 0.75Q29.55 0.75 26.75-2.88 23.95-6.5 23.95-13.25L23.95-13.25Q23.95-19.95 26.75-23.55 29.55-27.15 34.5-27.15L34.5-27.15ZM34.5-22.5Q32.35-22.5 31.35-20.38 30.35-18.25 30.35-13.25L30.35-13.25Q30.35-8.2 31.35-6.08 32.35-3.95 34.5-3.95L34.5-3.95Q36.65-3.95 37.65-6.08 38.65-8.2 38.65-13.25L38.65-13.25Q38.65-18.3 37.65-20.4 36.65-22.5 34.5-22.5L34.5-22.5ZM71.79-27.15Q74.64-27.15 76.29-25.1 77.94-23.05 77.94-19.6L77.94-19.6 77.94 0 71.79 0 71.79-18.9Q71.79-20.8 71.27-21.63 70.74-22.45 69.74-22.45L69.74-22.45Q67.64-22.45 65.59-18.5L65.59-18.5 65.59 0 59.44 0 59.44-37 65.59-37.65 65.59-23.3Q66.84-25.25 68.32-26.2 69.79-27.15 71.79-27.15L71.79-27.15ZM100.39-6.4Q100.39-5.1 100.74-4.48 101.09-3.85 101.89-3.45L101.89-3.45 100.64 0.65Q98.59 0.4 97.37-0.45 96.14-1.3 95.54-3.05L95.54-3.05Q93.24 0.75 89.09 0.75L89.09 0.75Q85.79 0.75 83.84-1.48 81.89-3.7 81.89-7.4L81.89-7.4Q81.89-11.7 84.57-13.95 87.24-16.2 92.34-16.2L92.34-16.2 94.39-16.2 94.39-18.05Q94.39-20.55 93.52-21.58 92.64-22.6 90.69-22.6L90.69-22.6Q88.34-22.6 84.84-21.3L84.84-21.3 83.44-25.3Q85.44-26.2 87.59-26.68 89.74-27.15 91.69-27.15L91.69-27.15Q100.39-27.15 100.39-18.35L100.39-18.35 100.39-6.4ZM90.74-3.7Q93.14-3.7 94.39-7L94.39-7 94.39-12.55 92.94-12.55Q90.39-12.55 89.22-11.4 88.04-10.25 88.04-7.85L88.04-7.85Q88.04-5.8 88.74-4.75 89.44-3.7 90.74-3.7L90.74-3.7ZM117.84-27.1Q118.99-27.1 119.89-26.75L119.89-26.75 118.89-20.85Q117.89-21.1 117.04-21.1L117.04-21.1Q115.14-21.1 114.04-19.45 112.94-17.8 112.34-14.55L112.34-14.55 112.34 0 106.19 0 106.19-26.45 111.54-26.45 111.99-21.85Q113.84-27.1 117.84-27.1L117.84-27.1ZM135.69-37.7L141.84-37.05 141.84 0 136.39 0 136.09-3.05Q133.74 0.75 130.04 0.75L130.04 0.75Q125.94 0.75 123.76-2.93 121.59-6.6 121.59-13.2L121.59-13.2Q121.59-17.4 122.71-20.58 123.84-23.75 125.84-25.45 127.84-27.15 130.44-27.15L130.44-27.15Q133.64-27.15 135.69-24.5L135.69-24.5 135.69-37.7ZM131.79-3.9Q132.94-3.9 133.86-4.7 134.79-5.5 135.69-7L135.69-7 135.69-19.85Q134.09-22.55 132.04-22.55L132.04-22.55Q127.99-22.55 127.99-13.25L127.99-13.25Q127.99-8.2 128.99-6.05 129.99-3.9 131.79-3.9L131.79-3.9ZM166.78-27.15Q171.78-27.15 174.56-23.65 177.33-20.15 177.33-13.25L177.33-13.25Q177.33-6.65 174.53-2.95 171.73 0.75 166.78 0.75L166.78 0.75Q161.83 0.75 159.03-2.88 156.23-6.5 156.23-13.25L156.23-13.25Q156.23-19.95 159.03-23.55 161.83-27.15 166.78-27.15L166.78-27.15ZM166.78-22.5Q164.63-22.5 163.63-20.38 162.63-18.25 162.63-13.25L162.63-13.25Q162.63-8.2 163.63-6.08 164.63-3.95 166.78-3.95L166.78-3.95Q168.93-3.95 169.93-6.08 170.93-8.2 170.93-13.25L170.93-13.25Q170.93-18.3 169.93-20.4 168.93-22.5 166.78-22.5L166.78-22.5ZM193.53-27.1Q194.68-27.1 195.58-26.75L195.58-26.75 194.58-20.85Q193.58-21.1 192.73-21.1L192.73-21.1Q190.83-21.1 189.73-19.45 188.63-17.8 188.03-14.55L188.03-14.55 188.03 0 181.88 0 181.88-26.45 187.23-26.45 187.68-21.85Q189.53-27.1 193.53-27.1L193.53-27.1ZM226.22-29.85L227.77-25.1Q226.72-24.6 225.25-24.4 223.77-24.2 221.57-24.2L221.57-24.2Q223.67-23.2 224.7-21.53 225.72-19.85 225.72-17.4L225.72-17.4Q225.72-13.4 223.27-10.95 220.82-8.5 216.62-8.5L216.62-8.5Q215.37-8.5 214.07-8.9L214.07-8.9Q213.17-8.15 213.17-6.85L213.17-6.85Q213.17-5.85 213.72-5.35 214.27-4.85 215.77-4.85L215.77-4.85 218.57-4.85Q222.57-4.85 224.92-2.78 227.27-0.7 227.27 2.5L227.27 2.5Q227.27 6.3 224.35 8.58 221.42 10.85 216.02 10.85L216.02 10.85Q210.32 10.85 208.05 8.75 205.77 6.65 205.77 2.6L205.77 2.6 211.22 2.6Q211.22 4.75 212.22 5.65 213.22 6.55 216.07 6.55L216.07 6.55Q218.82 6.55 219.97 5.6 221.12 4.65 221.12 2.9L221.12 2.9Q221.12 1.2 220.17 0.4 219.22-0.4 217.22-0.4L217.22-0.4 215.32-0.4Q211.52-0.4 209.77-1.75 208.02-3.1 208.02-5.45L208.02-5.45Q208.02-6.8 208.75-8.03 209.47-9.25 210.72-10.2L210.72-10.2Q208.67-11.5 207.72-13.3 206.77-15.1 206.77-17.7L206.77-17.7Q206.77-22.05 209.37-24.58 211.97-27.1 216.37-27.1L216.37-27.1Q219.62-27.1 221.75-27.8 223.87-28.5 226.22-29.85L226.22-29.85ZM216.37-23Q214.62-23 213.72-21.75 212.82-20.5 212.82-17.8L212.82-17.8Q212.82-15.25 213.72-13.88 214.62-12.5 216.32-12.5L216.32-12.5Q218.07-12.5 218.92-13.73 219.77-14.95 219.77-17.85L219.77-17.85Q219.77-20.55 218.95-21.78 218.12-23 216.37-23L216.37-23ZM239.92-27.15Q244.92-27.15 247.7-23.65 250.47-20.15 250.47-13.25L250.47-13.25Q250.47-6.65 247.67-2.95 244.87 0.75 239.92 0.75L239.92 0.75Q234.97 0.75 232.17-2.88 229.37-6.5 229.37-13.25L229.37-13.25Q229.37-19.95 232.17-23.55 234.97-27.15 239.92-27.15L239.92-27.15ZM239.92-22.5Q237.77-22.5 236.77-20.38 235.77-18.25 235.77-13.25L235.77-13.25Q235.77-8.2 236.77-6.08 237.77-3.95 239.92-3.95L239.92-3.95Q242.07-3.95 243.07-6.08 244.07-8.2 244.07-13.25L244.07-13.25Q244.07-18.3 243.07-20.4 242.07-22.5 239.92-22.5L239.92-22.5ZM277.22-27.15Q280.07-27.15 281.72-25.1 283.37-23.05 283.37-19.6L283.37-19.6 283.37 0 277.22 0 277.22-18.9Q277.22-20.8 276.69-21.63 276.17-22.45 275.17-22.45L275.17-22.45Q273.07-22.45 271.02-18.5L271.02-18.5 271.02 0 264.87 0 264.87-37 271.02-37.65 271.02-23.3Q272.27-25.25 273.74-26.2 275.22-27.15 277.22-27.15L277.22-27.15ZM298.31-27.15Q303.31-27.15 306.09-23.65 308.86-20.15 308.86-13.25L308.86-13.25Q308.86-6.65 306.06-2.95 303.26 0.75 298.31 0.75L298.31 0.75Q293.36 0.75 290.56-2.88 287.76-6.5 287.76-13.25L287.76-13.25Q287.76-19.95 290.56-23.55 293.36-27.15 298.31-27.15L298.31-27.15ZM298.31-22.5Q296.16-22.5 295.16-20.38 294.16-18.25 294.16-13.25L294.16-13.25Q294.16-8.2 295.16-6.08 296.16-3.95 298.31-3.95L298.31-3.95Q300.46-3.95 301.46-6.08 302.46-8.2 302.46-13.25L302.46-13.25Q302.46-18.3 301.46-20.4 300.46-22.5 298.31-22.5L298.31-22.5ZM337.06-27.15Q339.71-27.15 341.31-25.1 342.91-23.05 342.91-19.6L342.91-19.6 342.91 0 336.86 0 336.86-18.95Q336.86-20.85 336.36-21.68 335.86-22.5 334.91-22.5L334.91-22.5Q332.96-22.5 331.16-18.8L331.16-18.8 331.16 0 325.16 0 325.16-18.95Q325.16-22.5 323.26-22.5L323.26-22.5Q321.21-22.5 319.46-18.8L319.46-18.8 319.46 0 313.41 0 313.41-26.45 318.76-26.45 319.16-23.05Q321.76-27.15 325.41-27.15L325.41-27.15Q327.26-27.15 328.61-26 329.96-24.85 330.66-22.75L330.66-22.75Q333.31-27.15 337.06-27.15L337.06-27.15ZM367.26-13.85Q367.26-13.4 367.11-11.3L367.11-11.3 353.46-11.3Q353.66-7.2 354.88-5.58 356.11-3.95 358.36-3.95L358.36-3.95Q359.91-3.95 361.16-4.48 362.41-5 363.86-6.15L363.86-6.15 366.41-2.65Q362.91 0.75 358.01 0.75L358.01 0.75Q352.81 0.75 350.03-2.85 347.26-6.45 347.26-13L347.26-13Q347.26-19.55 349.91-23.35 352.56-27.15 357.41-27.15L357.41-27.15Q362.06-27.15 364.66-23.78 367.26-20.4 367.26-13.85L367.26-13.85ZM361.26-15.3L361.26-15.65Q361.26-19.4 360.36-21.13 359.46-22.85 357.46-22.85L357.46-22.85Q355.61-22.85 354.63-21.18 353.66-19.5 353.46-15.3L353.46-15.3 361.26-15.3Z" opacity="1" transform="matrix(1,0,0,1,0,0)" fill="#000000" class="slogan-text-1" data-fill-palette-color="secondary" id="text-1"></path></svg></g></svg></g></svg></g></svg></g><g><svg viewBox="0 0 151.05858048 151.0600910809108" height="151.0600910809108" width="151.05858048"><g><svg version="1.1" xmlns="http://www.w3.org/2000/svg" xmlns:xlink="http://www.w3.org/1999/xlink" x="0" y="0" viewBox="0 0 99.999 100" enable-background="new 0 0 99.999 100" xml:space="preserve" id="icon-0" width="151.05858048" height="151.0600910809108" class="icon-icon-0" data-fill-palette-color="accent"><path fill="#000000" d="M72.724 72.729H70.311L78.457 62.701C85.688 60.299 90.907 53.489 90.907 45.453 90.907 35.412 82.767 27.275 72.725 27.275 69.085 27.275 65.717 28.366 62.876 30.207 60.078 18.125 49.298 9.092 36.363 9.092 21.302 9.092 9.092 21.302 9.092 36.367 9.092 48.745 17.348 59.184 28.649 62.514L25.582 71.1C10.762 66.505 0 52.694 0 36.365 0 16.284 16.281 0 36.363 0 50.009 0 61.885 7.528 68.105 18.648 69.614 18.388 71.146 18.182 72.726 18.182 87.788 18.182 99.999 30.39 99.999 45.454S87.786 72.729 72.724 72.729" data-fill-palette-color="accent"></path><polygon fill="#000000" points="45.453,40.908 68.178,40.908 54.542,63.638 70.45,63.638 40.907,100 49.089,72.729 34.088,72.729 	" data-fill-palette-color="accent"></polygon></svg></g></svg></g></svg></g></svg></g><g><path d="M0 123.6c0-68.262 55.338-123.6 123.6-123.6 50.207 0 93.422 29.936 112.771 72.932l-2.709 0c-19.181-41.597-61.25-70.467-110.062-70.468-66.901 0-121.136 54.234-121.136 121.136 0 66.901 54.234 121.136 121.136 121.136 48.812 0 90.881-28.871 110.062-70.468l2.709 0c-19.348 42.996-62.564 72.932-112.771 72.932-68.262 0-123.6-55.338-123.6-123.6z" fill="#000000" stroke="transparent" data-fill-palette-color="tertiary"></path></g></svg></g><defs></defs></svg><rect width="395.52" height="247.2" fill="none" stroke="none" visibility="hidden"></rect></g></svg></g></svg>